<svg xmlns="http://www.w3.org/2000/svg" width="23.333" height="28" viewBox="0 0 23.333 28">
  <g id="bell_1_" data-name="bell (1)" transform="translate(-2)">
    <path id="Path_1074" data-name="Path 1074" d="M24.609,19.732a7.814,7.814,0,0,1-2.775-5.979V10.5a8.173,8.173,0,0,0-7-8.073V1.167a1.167,1.167,0,1,0-2.333,0v1.26a8.172,8.172,0,0,0-7,8.073v3.253a7.823,7.823,0,0,1-2.786,5.988,2.041,2.041,0,0,0,1.328,3.592h19.25a2.042,2.042,0,0,0,1.317-3.6Z" fill="#757575"/>
    <path id="Path_1075" data-name="Path 1075" d="M12.612,24.5A4.382,4.382,0,0,0,16.9,21H8.326A4.382,4.382,0,0,0,12.612,24.5Z" transform="translate(1.054 3.5)" fill="#757575"/>
  </g>
</svg>
