<svg xmlns="http://www.w3.org/2000/svg" width="24.667" height="22.258" viewBox="0 0 24.667 22.258">
  <g id="calendar_1_" data-name="calendar (1)" transform="translate(0 -25)">
    <path id="Path_1076" data-name="Path 1076" d="M24.667,31.937V29.1A2.17,2.17,0,0,0,22.5,26.927H22.21v2.65a.723.723,0,0,1-1.445,0V25.723a.723.723,0,1,0-1.445,0v1.2H14.5v2.65a.723.723,0,0,1-1.445,0V25.723a.723.723,0,1,0-1.445,0v1.2H6.793v2.65a.723.723,0,0,1-1.445,0V25.723a.723.723,0,1,0-1.445,0v1.2H2.168A2.17,2.17,0,0,0,0,29.1v2.842Z" fill="#757575"/>
    <path id="Path_1077" data-name="Path 1077" d="M0,199v11.707a2.17,2.17,0,0,0,2.168,2.168H22.5a2.17,2.17,0,0,0,2.168-2.168V199Zm6.937,10.021H5.4a.723.723,0,0,1,0-1.445H6.937a.723.723,0,0,1,0,1.445Zm0-3.083H5.4a.723.723,0,0,1,0-1.445H6.937a.723.723,0,0,1,0,1.445Zm0-3.083H5.4a.723.723,0,0,1,0-1.445H6.937a.723.723,0,0,1,0,1.445Zm6.167,6.167H11.562a.723.723,0,0,1,0-1.445H13.1a.723.723,0,0,1,0,1.445Zm0-3.083H11.562a.723.723,0,0,1,0-1.445H13.1a.723.723,0,0,1,0,1.445Zm0-3.083H11.562a.723.723,0,0,1,0-1.445H13.1a.723.723,0,0,1,0,1.445Zm6.167,6.167H17.729a.723.723,0,0,1,0-1.445h1.542a.723.723,0,0,1,0,1.445Zm0-3.083H17.729a.723.723,0,0,1,0-1.445h1.542a.723.723,0,0,1,0,1.445Zm0-3.083H17.729a.723.723,0,0,1,0-1.445h1.542a.723.723,0,0,1,0,1.445Z" transform="translate(0 -165.617)" fill="#757575"/>
  </g>
</svg>
