<svg id="calendar" xmlns="http://www.w3.org/2000/svg" width="27.893" height="27.893" viewBox="0 0 27.893 27.893">
  <g id="Group_15" data-name="Group 15">
    <g id="Group_14" data-name="Group 14">
      <path id="Path_1018" data-name="Path 1018" d="M24.625,2.179H23.317V0H21.138V2.179H6.755V0H4.576V2.179H3.269A3.272,3.272,0,0,0,0,5.448V24.625a3.272,3.272,0,0,0,3.269,3.269H24.625a3.272,3.272,0,0,0,3.269-3.269V5.448A3.272,3.272,0,0,0,24.625,2.179Zm1.09,22.445a1.091,1.091,0,0,1-1.09,1.09H3.269a1.091,1.091,0,0,1-1.09-1.09V10.242H25.714Zm0-16.562H2.179V5.448a1.091,1.091,0,0,1,1.09-1.09H4.576V6.538H6.755V4.358H21.138V6.538h2.179V4.358h1.308a1.091,1.091,0,0,1,1.09,1.09Z" fill="#fff"/>
    </g>
  </g>
  <g id="Group_17" data-name="Group 17" transform="translate(4.48 12.543)">
    <g id="Group_16" data-name="Group 16" transform="translate(0 0)">
      <rect id="Rectangle_18" data-name="Rectangle 18" width="2" height="1" transform="translate(-0.48 0.457)" fill="#fff"/>
    </g>
  </g>
  <g id="Group_19" data-name="Group 19" transform="translate(8.063 12.543)">
    <g id="Group_18" data-name="Group 18" transform="translate(0 0)">
      <rect id="Rectangle_19" data-name="Rectangle 19" width="3" height="1" transform="translate(-0.063 0.457)" fill="#fff"/>
    </g>
  </g>
  <g id="Group_21" data-name="Group 21" transform="translate(12.543 12.543)">
    <g id="Group_20" data-name="Group 20" transform="translate(0 0)">
      <rect id="Rectangle_20" data-name="Rectangle 20" width="2" height="1" transform="translate(0.457 0.457)" fill="#fff"/>
    </g>
  </g>
  <g id="Group_23" data-name="Group 23" transform="translate(17.023 12.543)">
    <g id="Group_22" data-name="Group 22" transform="translate(0 0)">
      <rect id="Rectangle_21" data-name="Rectangle 21" width="3" height="1" transform="translate(-0.023 0.457)" fill="#fff"/>
    </g>
  </g>
  <g id="Group_25" data-name="Group 25" transform="translate(21.503 12.543)">
    <g id="Group_24" data-name="Group 24" transform="translate(0 0)">
      <rect id="Rectangle_22" data-name="Rectangle 22" width="2" height="1" transform="translate(0.497 0.457)" fill="#fff"/>
    </g>
  </g>
  <g id="Group_27" data-name="Group 27" transform="translate(4.48 17.023)">
    <g id="Group_26" data-name="Group 26" transform="translate(0 0)">
      <rect id="Rectangle_23" data-name="Rectangle 23" width="2" height="2" transform="translate(-0.48 -0.023)" fill="#fff"/>
    </g>
  </g>
  <g id="Group_29" data-name="Group 29" transform="translate(8.063 17.023)">
    <g id="Group_28" data-name="Group 28" transform="translate(0 0)">
      <rect id="Rectangle_24" data-name="Rectangle 24" width="3" height="2" transform="translate(-0.063 -0.023)" fill="#fff"/>
    </g>
  </g>
  <g id="Group_31" data-name="Group 31" transform="translate(12.543 17.023)">
    <g id="Group_30" data-name="Group 30" transform="translate(0 0)">
      <rect id="Rectangle_25" data-name="Rectangle 25" width="2" height="2" transform="translate(0.457 -0.023)" fill="#fff"/>
    </g>
  </g>
  <g id="Group_33" data-name="Group 33" transform="translate(17.023 17.023)">
    <g id="Group_32" data-name="Group 32" transform="translate(0 0)">
      <rect id="Rectangle_26" data-name="Rectangle 26" width="3" height="2" transform="translate(-0.023 -0.023)" fill="#fff"/>
    </g>
  </g>
  <g id="Group_35" data-name="Group 35" transform="translate(4.48 21.503)">
    <g id="Group_34" data-name="Group 34" transform="translate(0 0)">
      <rect id="Rectangle_27" data-name="Rectangle 27" width="2" height="1" transform="translate(-0.48 0.497)" fill="#fff"/>
    </g>
  </g>
  <g id="Group_37" data-name="Group 37" transform="translate(8.063 21.503)">
    <g id="Group_36" data-name="Group 36" transform="translate(0 0)">
      <rect id="Rectangle_28" data-name="Rectangle 28" width="3" height="1" transform="translate(-0.063 0.497)" fill="#fff"/>
    </g>
  </g>
  <g id="Group_39" data-name="Group 39" transform="translate(12.543 21.503)">
    <g id="Group_38" data-name="Group 38" transform="translate(0 0)">
      <rect id="Rectangle_29" data-name="Rectangle 29" width="2" height="1" transform="translate(0.457 0.497)" fill="#fff"/>
    </g>
  </g>
  <g id="Group_41" data-name="Group 41" transform="translate(17.023 21.503)">
    <g id="Group_40" data-name="Group 40" transform="translate(0 0)">
      <rect id="Rectangle_30" data-name="Rectangle 30" width="3" height="1" transform="translate(-0.023 0.497)" fill="#fff"/>
    </g>
  </g>
  <g id="Group_43" data-name="Group 43" transform="translate(21.503 17.023)">
    <g id="Group_42" data-name="Group 42" transform="translate(0 0)">
      <rect id="Rectangle_31" data-name="Rectangle 31" width="2" height="2" transform="translate(0.497 -0.023)" fill="#fff"/>
    </g>
  </g>
</svg>
