<svg xmlns="http://www.w3.org/2000/svg" width="37.452" height="37.452" viewBox="0 0 37.452 37.452">
  <g id="confidential" transform="translate(-1 -1)">
    <path id="Path_1030" data-name="Path 1030" d="M19.624,19H18.416a.6.6,0,0,1-1.208,0H16a1.812,1.812,0,0,0,3.624,0Z" transform="translate(-5.939 -7.127)" fill="#757575"/>
    <path id="Path_1031" data-name="Path 1031" d="M25.812,20.812A1.814,1.814,0,0,0,27.624,19H26.416a.6.6,0,1,1-1.208,0H24A1.814,1.814,0,0,0,25.812,20.812Z" transform="translate(-9.106 -7.127)" fill="#757575"/>
    <path id="Path_1032" data-name="Path 1032" d="M17.879,21.636,16.7,21.57a2.807,2.807,0,0,0-.057-.464A6.6,6.6,0,0,0,18.1,20.33h2.429a4.025,4.025,0,0,0,3.6-5.825l-.783-1.566V10.061a9.061,9.061,0,0,0-18.122,0v2.878l-.783,1.567a4.025,4.025,0,0,0,3.6,5.824h2.424a6.573,6.573,0,0,0,.81.487l-.1.791-.48.027A10.274,10.274,0,0,0,1,31.89a6.57,6.57,0,0,0,6.563,6.563H27.579V31.89A10.273,10.273,0,0,0,17.879,21.636Zm2.654-2.514H19.406A6.659,6.659,0,0,0,20.82,16.1h.114A2.41,2.41,0,0,0,23,14.929l.058.116a2.817,2.817,0,0,1-2.52,4.077Zm.4-6.645a1.208,1.208,0,1,1,0,2.416ZM14.289,2.208a7.862,7.862,0,0,1,7.853,7.853V11.6a2.391,2.391,0,0,0-1.208-.336V8.853H19.122a3.289,3.289,0,0,1-2.957-1.827l-.127-.255-1.081.54.127.256a4.514,4.514,0,0,0,.971,1.284,3.286,3.286,0,0,1-2.91-1.824l-.127-.255-1.081.54.127.256a4.514,4.514,0,0,0,.971,1.284,3.286,3.286,0,0,1-2.91-1.824L10,6.772l-1.081.54.127.256a4.549,4.549,0,0,0,.326.552,3.018,3.018,0,0,0-1.725,2.714v.436a2.391,2.391,0,0,0-1.208.336V10.061a7.862,7.862,0,0,1,7.853-7.853ZM6.437,13.685a1.209,1.209,0,0,1,1.208-1.208v2.416A1.209,1.209,0,0,1,6.437,13.685Zm-1.208,2.62a2.831,2.831,0,0,1,.3-1.259l.058-.117A2.41,2.41,0,0,0,7.645,16.1h.114a6.623,6.623,0,0,0,1.406,3.02H8.045a2.82,2.82,0,0,1-2.817-2.817Zm3.624-1.412v-4.06a1.815,1.815,0,0,1,1.408-1.763,4.491,4.491,0,0,0,2.82.99V8.894a4.485,4.485,0,0,0,3.02,1.167V8.894a4.485,4.485,0,0,0,3.02,1.167h.6v4.833a5.448,5.448,0,0,1-3.582,5.112,2.781,2.781,0,0,0-.646-.623v-2a1.887,1.887,0,0,0-3.76-.234l-.3,2.374A5.427,5.427,0,0,1,8.853,14.894Zm5.791,8.457H12.18l.756-6.05a.679.679,0,0,1,1.353.085V20.1l.334.167a1.573,1.573,0,0,1,.874,1.414v.161a1.59,1.59,0,0,1-.463,1.118ZM2.208,31.89a9.065,9.065,0,0,1,8.558-9.047l.261-.014-.385,3.083a13.014,13.014,0,0,1-2.863,6.627L6.373,29.725l-1.081.541L6.91,33.5l-.9.9.854.854.941-.941a14.222,14.222,0,0,0,4.036-8.253l.188-1.5h2.26v2.977a12.881,12.881,0,0,1-2.34,7.424,5.355,5.355,0,0,1-9.741-3.07Zm24.163,5.354H22.746V28.183H21.538v9.061H11.346a6.542,6.542,0,0,0,1.592-1.591A14.085,14.085,0,0,0,15.5,27.536V24.2l.391-.391a2.765,2.765,0,0,0,.648-1.042l1.276.071a9.064,9.064,0,0,1,8.559,9.047Z" fill="#757575"/>
    <path id="Path_1033" data-name="Path 1033" d="M27,46h3.624v1.208H27Z" transform="translate(-10.294 -17.817)" fill="#757575"/>
    <path id="Path_1034" data-name="Path 1034" d="M51.487,7H43.8a2.8,2.8,0,0,0-2.749,3.353l.812,4.059a2.81,2.81,0,0,0,2.748,2.253h.614v.958a1.458,1.458,0,0,0,2.489,1.031l1.989-1.989h.968a2.809,2.809,0,0,0,2.748-2.253l.812-4.059a2.756,2.756,0,0,0,.055-.55,2.806,2.806,0,0,0-2.8-2.8Zm1.564,3.115-.812,4.06a1.6,1.6,0,0,1-1.564,1.282H49.207L46.864,17.8a.26.26,0,0,1-.427-.177V15.457H44.615a1.6,1.6,0,0,1-1.563-1.282l-.812-4.061a1.533,1.533,0,0,1-.031-.312A1.6,1.6,0,0,1,43.8,8.208h7.684a1.6,1.6,0,0,1,1.564,1.907Z" transform="translate(-15.837 -2.376)" fill="#757575"/>
    <path id="Path_1035" data-name="Path 1035" d="M46,11h7.249v1.208H46Z" transform="translate(-17.817 -3.959)" fill="#757575"/>
    <path id="Path_1036" data-name="Path 1036" d="M46,15h7.249v1.208H46Z" transform="translate(-17.817 -5.543)" fill="#757575"/>
  </g>
</svg>
