<svg xmlns="http://www.w3.org/2000/svg" width="34.735" height="23.373" viewBox="0 0 34.735 23.373">
  <path id="crown_1_" data-name="crown (1)" d="M33.368,51.1a.971.971,0,0,1-.026.289L31.2,59.958a.974.974,0,0,1-.94.738l-12.855.065H4.545a.974.974,0,0,1-.945-.739l-2.143-8.6a.972.972,0,0,1-.026-.3,2.046,2.046,0,1,1,1.912-.372l2.682,2.7a3.641,3.641,0,0,0,5.487-.371l4.408-5.841a2.046,2.046,0,1,1,2.923-.035l0,0,4.376,5.857a3.653,3.653,0,0,0,2.913,1.46,3.613,3.613,0,0,0,2.571-1.065l2.7-2.7a2.045,2.045,0,1,1,1.96.335ZM30.991,63.812a.974.974,0,0,0-.974-.974H4.826a.974.974,0,0,0-.974.974v2.337a.974.974,0,0,0,.974.974H30.017a.974.974,0,0,0,.974-.974Z" transform="translate(0 -43.75)" fill="#757575"/>
</svg>
