<svg xmlns="http://www.w3.org/2000/svg" width="23.307" height="14.905" viewBox="0 0 23.307 14.905">
  <g id="crown" transform="translate(0 0)">
    <path id="Path_1004" data-name="Path 1004" d="M51.19,61.762H36.328a.686.686,0,0,1-.567-.3c-1.961-2.876-2.111-8.407-2.123-9.228,0-.032,0-.065,0-.1a.686.686,0,0,1,.685-.686h0a.686.686,0,0,1,.686.684s0,.045,0,.117a3.637,3.637,0,0,0,7.273-.114.686.686,0,0,1,.686-.686h1.577a.686.686,0,0,1,.686.686,3.637,3.637,0,0,0,7.273.109c0-.069,0-.107,0-.111a.686.686,0,0,1,.686-.684h0a.686.686,0,0,1,.685.686c0,.033,0,.065,0,.1-.012.821-.162,6.353-2.123,9.228A.687.687,0,0,1,51.19,61.762Zm0,0" transform="translate(-32.106 -49.108)" fill="#fff780"/>
    <path id="Path_1005" data-name="Path 1005" d="M265.441,51.449h0a.686.686,0,0,0-.686.684s0,.043,0,.112a3.637,3.637,0,0,1-7.273-.109.686.686,0,0,0-.686-.686H256V61.761h7.431a.686.686,0,0,0,.567-.3c1.961-2.876,2.111-8.407,2.123-9.228,0-.032,0-.065,0-.1a.687.687,0,0,0-.685-.686Zm0,0" transform="translate(-244.351 -49.107)" fill="#ffc02e"/>
    <path id="Path_1006" data-name="Path 1006" d="M209.5,0a2.218,2.218,0,1,0,2.218,2.218A2.22,2.22,0,0,0,209.5,0Zm0,0" transform="translate(-197.846 0)" fill="#ffc02e"/>
    <path id="Path_1007" data-name="Path 1007" d="M256,0V4.435A2.218,2.218,0,0,0,256,0Zm0,0" transform="translate(-244.35 0)" fill="#ffa73b"/>
    <path id="Path_1008" data-name="Path 1008" d="M2.218,37.6a2.218,2.218,0,1,0,2.218,2.218A2.22,2.22,0,0,0,2.218,37.6Zm0,0" transform="translate(0 -35.886)" fill="#ffc02e"/>
    <path id="Path_1009" data-name="Path 1009" d="M416.784,37.6A2.218,2.218,0,1,0,419,39.815,2.22,2.22,0,0,0,416.784,37.6Zm0,0" transform="translate(-395.695 -35.886)" fill="#ffa73b"/>
    <path id="Path_1010" data-name="Path 1010" d="M93.221,270.131H78.358a.686.686,0,0,1-.686-.686V267.4H93.907v2.047A.686.686,0,0,1,93.221,270.131Zm0,0" transform="translate(-74.136 -255.226)" fill="#ffc02e"/>
    <path id="Path_1011" data-name="Path 1011" d="M256,270.131h7.431a.686.686,0,0,0,.686-.686V267.4H256Zm0,0" transform="translate(-244.35 -255.226)" fill="#ffa73b"/>
  </g>
</svg>
