<svg xmlns="http://www.w3.org/2000/svg" width="33.394" height="29.22" viewBox="0 0 33.394 29.22">
  <g id="export" transform="translate(0 -31.998)">
    <g id="Group_59" data-name="Group 59" transform="translate(0 34.086)">
      <g id="Group_58" data-name="Group 58" transform="translate(0 0)">
        <path id="Path_1070" data-name="Path 1070" d="M22.959,78.677v8.284H4.174V68.176h6.261V64H2.087A2.088,2.088,0,0,0,0,66.089V89.048a2.087,2.087,0,0,0,2.087,2.087H25.046a2.085,2.085,0,0,0,2.087-2.087V78.677Z" transform="translate(0 -64.002)" fill="#757575"/>
      </g>
    </g>
    <g id="Group_61" data-name="Group 61" transform="translate(8.349 31.998)">
      <g id="Group_60" data-name="Group 60" transform="translate(0 0)">
        <path id="Path_1071" data-name="Path 1071" d="M152.628,38.469l-8.349-6.261a1.044,1.044,0,0,0-1.67.835v3.131h-3.131A11.492,11.492,0,0,0,128,47.652a1.044,1.044,0,0,0,1.977.468l.246-.49a9.34,9.34,0,0,1,8.4-5.195h3.986v3.131a1.044,1.044,0,0,0,1.67.835l8.349-6.261a1.044,1.044,0,0,0,0-1.67Z" transform="translate(-128 -31.998)" fill="#757575"/>
      </g>
    </g>
  </g>
</svg>
