<svg id="language_1_" data-name="language (1)" xmlns="http://www.w3.org/2000/svg" width="27" height="27" viewBox="0 0 27 27">
  <g id="Group_65" data-name="Group 65" transform="translate(6.344 7.225)">
    <g id="Group_64" data-name="Group 64">
      <path id="Path_1081" data-name="Path 1081" d="M121.264,137h-.339l-.633,3.164h1.6Z" transform="translate(-120.293 -137)" fill="#757575"/>
    </g>
  </g>
  <g id="Group_67" data-name="Group 67" transform="translate(20.112 13.553)">
    <g id="Group_66" data-name="Group 66">
      <path id="Path_1082" data-name="Path 1082" d="M381.374,257a8.267,8.267,0,0,0,1.3,2.292A8.35,8.35,0,0,0,384.024,257Z" transform="translate(-381.374 -257)" fill="#757575"/>
    </g>
  </g>
  <g id="Group_69" data-name="Group 69" transform="translate(12.797 4.799)">
    <g id="Group_68" data-name="Group 68">
      <path id="Path_1083" data-name="Path 1083" d="M254.493,91H244.67l2.048,16.436a2.456,2.456,0,0,1-.586,1.8l-3.469,3.964h11.83a2.376,2.376,0,0,0,2.373-2.373v-17.4A2.421,2.421,0,0,0,254.493,91Zm0,8.754h-.211a10.037,10.037,0,0,1-1.906,3.465c.581.531,1.2.967,1.82,1.455a.791.791,0,1,1-.989,1.234c-.671-.53-1.3-.973-1.931-1.551-.63.578-1.207,1.022-1.879,1.551a.791.791,0,1,1-.989-1.234c.618-.488,1.186-.924,1.768-1.455a9.984,9.984,0,0,1-1.853-3.465h-.211a.791.791,0,0,1,0-1.582h2.373v-.791a.791.791,0,0,1,1.582,0v.791h2.426a.791.791,0,1,1,0,1.582Z" transform="translate(-242.663 -91)" fill="#757575"/>
    </g>
  </g>
  <g id="Group_71" data-name="Group 71">
    <g id="Group_70" data-name="Group 70">
      <path id="Path_1084" data-name="Path 1084" d="M12.876,2.079A2.376,2.376,0,0,0,10.521,0H2.373A2.376,2.376,0,0,0,0,2.373V19.881a2.376,2.376,0,0,0,2.373,2.373H14.847c.231-.264.424-.429.432-.773C15.282,21.394,12.887,2.164,12.876,2.079ZM9.7,15.119a.791.791,0,0,1-.931-.62l-.506-2.528H6.027L5.522,14.5a.791.791,0,0,1-1.551-.31l1.582-7.91a.792.792,0,0,1,.776-.636H7.963a.792.792,0,0,1,.776.636l1.582,7.91A.791.791,0,0,1,9.7,15.119Z" fill="#757575"/>
    </g>
  </g>
  <g id="Group_73" data-name="Group 73" transform="translate(9.242 23.836)">
    <g id="Group_72" data-name="Group 72">
      <path id="Path_1085" data-name="Path 1085" d="M175.261,452l.136,1.085a2.392,2.392,0,0,0,1.368,1.838L179.42,452Z" transform="translate(-175.261 -452)" fill="#757575"/>
    </g>
  </g>
</svg>
