<svg xmlns="http://www.w3.org/2000/svg" width="27.245" height="35.273" viewBox="0 0 27.245 35.273">
  <g id="lock" transform="translate(-64)">
    <g id="Group_62" data-name="Group 62" transform="translate(64)">
      <path id="Path_1072" data-name="Path 1072" d="M90.489,13.227h-2.27V10.288a10.6,10.6,0,0,0-21.191,0v2.939h-2.27a.746.746,0,0,0-.757.735V32.334a2.987,2.987,0,0,0,3.027,2.939H88.218a2.987,2.987,0,0,0,3.027-2.939V13.962A.746.746,0,0,0,90.489,13.227Zm-10.6,15.351a.723.723,0,0,1-.188.571.767.767,0,0,1-.564.245H76.109a.767.767,0,0,1-.564-.245.722.722,0,0,1-.188-.571l.477-4.169A2.881,2.881,0,0,1,74.6,22.046a3.029,3.029,0,0,1,6.055,0,2.881,2.881,0,0,1-1.239,2.364Zm3.788-15.351H71.568V10.288a6.057,6.057,0,0,1,12.109,0Z" transform="translate(-64)" fill="#757575"/>
    </g>
  </g>
</svg>
