<svg xmlns="http://www.w3.org/2000/svg" width="37.187" height="37.186" viewBox="0 0 37.187 37.186">
  <g id="mission" transform="translate(0)">
    <path id="Path_1037" data-name="Path 1037" d="M28.664,33.6H.775a.775.775,0,0,1-.68-1.147L14.039,6.892a.807.807,0,0,1,1.36,0L29.344,32.458a.775.775,0,0,1-.68,1.147ZM2.079,32.055H27.358L14.719,8.882Z" transform="translate(0 3.582)" fill="#757575"/>
    <path id="Path_1038" data-name="Path 1038" d="M28.075,30.044H20.328a.775.775,0,0,1,0-1.549h6.436L19.6,15.464l-2.953,6.111a.775.775,0,0,1-1.394-.676l3.607-7.462A.777.777,0,0,1,19.535,13a.816.816,0,0,1,.7.4L28.755,28.9a.776.776,0,0,1-.68,1.148Z" transform="translate(8.336 7.142)" fill="#757575"/>
    <path id="Path_1039" data-name="Path 1039" d="M9.775,11.621A.775.775,0,0,1,9,10.846V.775A.775.775,0,0,1,9.775,0h9.3a.776.776,0,0,1,.548,1.323l-2.552,2.55,2.55,2.55a.776.776,0,0,1-.547,1.323H10.549v3.1a.775.775,0,0,1-.775.775ZM10.549,6.2H17.2L15.425,4.422a.775.775,0,0,1,0-1.1L17.2,1.549H10.549Z" transform="translate(4.945)" fill="#757575"/>
    <path id="Path_1040" data-name="Path 1040" d="M13.846,16.642l-.056,0a.771.771,0,0,1-.564-.308l-1.7-2.271-1.7,2.271a.779.779,0,0,1-.564.308.749.749,0,0,1-.6-.225l-2.6-2.6a.775.775,0,0,1,1.1-1.1l1.971,1.971L10.9,12.3a.8.8,0,0,1,1.24,0l1.788,2.385L15.9,12.718a.775.775,0,0,1,1.1,1.1l-2.6,2.6a.773.773,0,0,1-.547.226Z" transform="translate(3.198 6.599)" fill="#757575"/>
  </g>
</svg>
