<svg xmlns="http://www.w3.org/2000/svg" width="34.94" height="34.701" viewBox="0 0 34.94 34.701">
  <g id="open-book" transform="translate(0 -1.753)">
    <path id="Path_1041" data-name="Path 1041" d="M3.532,83.11a.512.512,0,0,0-.512.512V98.807a.837.837,0,0,0,.836.836H6.075a.512.512,0,0,0,0-1.024H4.044V94.6H14.108a2.82,2.82,0,0,1,2.816,2.816v1.2H14.389a.512.512,0,0,0,0,1.024H31.016a.837.837,0,0,0,.836-.836V94.092h0V90.577a.512.512,0,1,0-1.024,0v3H20.764a3.83,3.83,0,0,0-2.816,1.233V79.607A2.821,2.821,0,0,1,20.573,76.8a.512.512,0,0,0-.068-1.021A3.843,3.843,0,0,0,17.436,77.7a3.841,3.841,0,0,0-3.328-1.929H3.856a.837.837,0,0,0-.836.836v1.684H1.166A1.167,1.167,0,0,0,0,79.452v22.512a1.167,1.167,0,0,0,1.166,1.166H6.075a.512.512,0,0,0,0-1.024H1.166a.142.142,0,0,1-.142-.142V79.452a.142.142,0,0,1,.142-.142H3.02v2.131a.512.512,0,1,0,1.024,0v-4.65H14.108a2.82,2.82,0,0,1,2.816,2.816V94.813a3.83,3.83,0,0,0-2.816-1.233H4.044V83.622a.512.512,0,0,0-.512-.512ZM20.764,94.6H30.828v4.015H17.948v-1.2A2.82,2.82,0,0,1,20.764,94.6Z" transform="translate(0 -68.963)" fill="#757575"/>
    <path id="Path_1042" data-name="Path 1042" d="M106.879,375.4h-5.862a.512.512,0,0,0,0,1.024h.24v2.487a.512.512,0,1,0,1.024,0v-2.487h3.2V383.4l-1.187-.716a.792.792,0,0,0-.82,0l-1.188.716v-2.31a.512.512,0,1,0-1.024,0v2.716a.794.794,0,0,0,1.2.68l1.417-.854,1.417.854a.794.794,0,0,0,1.2-.68v-7.385h.379a.512.512,0,1,0,0-1.024Z" transform="translate(-93.646 -348.15)" fill="#757575"/>
    <path id="Path_1043" data-name="Path 1043" d="M223.248,78.287h-1.923V76.6a.837.837,0,0,0-.836-.836h-.9a.512.512,0,1,0,0,1.024h.717V88.4a.512.512,0,1,0,1.024,0V79.31h1.923a.142.142,0,0,1,.142.142v22.512a.142.142,0,0,1-.142.142H203.862a.512.512,0,1,0,0,1.024h19.386a1.167,1.167,0,0,0,1.166-1.166V79.452a1.167,1.167,0,0,0-1.166-1.166Z" transform="translate(-189.473 -68.963)" fill="#757575"/>
    <path id="Path_1044" data-name="Path 1044" d="M326.273,20.485V22.6a.512.512,0,0,0,1.024,0V20.413a5.671,5.671,0,0,0,2.68-4.818V5a3.251,3.251,0,1,0-6.5,0V15.595A5.671,5.671,0,0,0,326.273,20.485Zm-1.763-4.567,1.763,1.4v1.927A4.647,4.647,0,0,1,324.51,15.917Zm4.443-5.12L327.3,12.141V9.6l1.657-1.344Zm-2.68,1.357L324.5,10.741V8.191L326.273,9.6Zm-1.774-.1,1.774,1.412v2.55L324.5,14.6Zm2.8,1.409,1.657-1.344v2.541L327.3,16ZM328.953,5V6.938L327.3,8.282V5.742l1.588-1.288A2.226,2.226,0,0,1,328.953,5Zm-2.68,3.291L324.5,6.882V5a2.22,2.22,0,0,1,.084-.6l1.69,1.345ZM327.3,19.152V17.318l1.64-1.33A4.647,4.647,0,0,1,327.3,19.152Zm1.1-15.62-1.1.892V2.851a2.23,2.23,0,0,1,1.1.681Zm-2.123-.709V4.436l-1.183-.942A2.226,2.226,0,0,1,326.273,2.823Z" transform="translate(-301.401)" fill="#757575"/>
    <path id="Path_1045" data-name="Path 1045" d="M82.036,152.437h8.559a.512.512,0,1,0,0-1.024H82.036a.512.512,0,0,0,0,1.024Z" transform="translate(-75.961 -139.447)" fill="#757575"/>
    <path id="Path_1046" data-name="Path 1046" d="M82.036,191.737h8.559a.512.512,0,1,0,0-1.024H82.036a.512.512,0,0,0,0,1.024Z" transform="translate(-75.961 -176.065)" fill="#757575"/>
    <path id="Path_1047" data-name="Path 1047" d="M82.036,231.036h8.559a.512.512,0,1,0,0-1.024H82.036a.512.512,0,0,0,0,1.024Z" transform="translate(-75.961 -212.682)" fill="#757575"/>
    <path id="Path_1048" data-name="Path 1048" d="M82.036,270.335h8.559a.512.512,0,0,0,0-1.024H82.036a.512.512,0,0,0,0,1.024Z" transform="translate(-75.961 -249.3)" fill="#757575"/>
  </g>
</svg>
