<svg id="palette" xmlns="http://www.w3.org/2000/svg" width="32.545" height="32.545" viewBox="0 0 32.545 32.545">
  <g id="Group_63" data-name="Group 63">
    <path id="Path_1073" data-name="Path 1073" d="M16.273,0a16.273,16.273,0,0,0,0,32.545,2.708,2.708,0,0,0,2.712-2.712,2.651,2.651,0,0,0-.705-1.817A2.716,2.716,0,0,1,20.314,23.5H23.5a9.044,9.044,0,0,0,9.04-9.04C32.545,6.473,25.259,0,16.273,0ZM6.328,16.273A2.712,2.712,0,1,1,9.04,13.561,2.708,2.708,0,0,1,6.328,16.273ZM11.753,9.04a2.712,2.712,0,1,1,2.712-2.712A2.708,2.708,0,0,1,11.753,9.04Zm9.04,0A2.712,2.712,0,1,1,23.5,6.328,2.708,2.708,0,0,1,20.793,9.04Zm5.424,7.232a2.712,2.712,0,1,1,2.712-2.712A2.708,2.708,0,0,1,26.217,16.273Z" fill="#757575"/>
  </g>
</svg>
