<svg xmlns="http://www.w3.org/2000/svg" width="13.648" height="13.648" viewBox="0 0 13.648 13.648">
  <g id="pencil" transform="translate(0 0)">
    <g id="Group_49" data-name="Group 49" transform="translate(0 0)">
      <path id="Path_1054" data-name="Path 1054" d="M13.223,1.661,11.986.424a1.451,1.451,0,0,0-2.049,0l-9.2,9.2a.407.407,0,0,0-.11.21L.007,13.175a.4.4,0,0,0,.466.466l3.339-.618a.407.407,0,0,0,.21-.11l9.2-9.2A1.449,1.449,0,0,0,13.223,1.661ZM.9,12.749l.374-2.02,1.646,1.646Zm2.84-.685L1.584,9.908l7.869-7.87,2.155,2.155Zm8.918-8.919-.484.484L10.018,1.473,10.5.989a.65.65,0,0,1,.919,0l1.237,1.237A.649.649,0,0,1,12.657,3.145Z" transform="translate(0 0)"/>
    </g>
  </g>
</svg>
