<svg xmlns="http://www.w3.org/2000/svg" width="44.128" height="36.356" viewBox="0 0 44.128 36.356">
  <g id="plant-with-leaves" transform="translate(1.399 -41.196)">
    <path id="Path_1049" data-name="Path 1049" d="M29.113,46.751c-4.377,1.149-5.9,4.918-5.646,6.493.08-.048.159-.1.24-.146.385-.236.8-.459,1.238-.69s.9-.447,1.365-.665c.236-.11.482-.206.727-.306l.368-.15c.159-.062.256-.088.387-.134l.738-.246.763-.216c.51-.141,1-.265,1.483-.364.959-.218,1.86-.377,2.635-.5,1.553-.236,2.611-.281,2.611-.281l-.666.285c-.426.177-1.033.412-1.764.693-.368.134-.763.28-1.182.433l-1.32.467c-.453.16-.918.326-1.393.5s-.95.343-1.437.529c-.454.17-.925.4-1.387.579-.459.209-1.246.482-1.691.673-.537.225-.876.347-1.217.527-3.819,2.228-5.51,6.173-6.542,10.347-.183-3.921-1.006-7.725-3.836-10.531l.009,0q-.575-.538-1.192-1.158c-.337-.347-.693-.692-1.039-1.06-.355-.346-.7-.734-1.061-1.065-.38-.359-.755-.714-1.126-1.039s-.74-.667-1.1-.989S7.372,48.1,7.042,47.8s-.64-.588-.926-.852c-.569-.537-1.042-.987-1.367-1.313l-.5-.518s.96.446,2.3,1.257c.671.407,1.442.9,2.247,1.465.405.276.813.579,1.231.9.205.164.414.326.622.491l.589.509c.1.093.184.153.306.272l.284.28c.189.186.379.37.554.56.353.379.7.757,1.01,1.135s.615.745.88,1.11c.056.079.109.15.165.226.837-1.359.87-5.423-2.739-8.158-3.929-2.975-9.4-1.64-11.7-2.74,2.315,3.542,1.871,5.906,5.76,9.793,2.6,2.6,5.026,2.761,6.661,2.309,3.326,3.2,3.845,8.082,3.846,12.753a1.966,1.966,0,0,0-1.231-.492,2.953,2.953,0,0,0-2.8,1.837,3.8,3.8,0,0,0-5.1,3.31c-1.41-.524-3.2,1.1-3.2,2.506a2.58,2.58,0,0,0,2.477,2.576l21.809.038s2.324-1.253,2.324-2.615a2.587,2.587,0,0,0-2.585-2.587,2.548,2.548,0,0,0-.571.068c.012-.1-.25-4.492-4.065-2.728-.3-1.374-.686-2.4-2.978-2.4a3.563,3.563,0,0,0-2.383.827c.955-4.857,2.43-9.931,6.731-12.441a.489.489,0,0,0,.1-.095c1.329,1.066,3.653,1.89,7.1.458,5.077-2.109,5.568-4.463,9.06-6.852C38.431,48.823,33.879,45.5,29.113,46.751ZM17.228,68.429l.143-.143c-.072.112-.116.193-.116.193Z" fill="none" stroke="#707070" stroke-width="1"/>
  </g>
</svg>
