<svg id="qr-code-scan" xmlns="http://www.w3.org/2000/svg" width="28.953" height="28.953" viewBox="0 0 28.953 28.953">
  <path id="Path_1021" data-name="Path 1021" d="M374.9,0h-4.052a.848.848,0,1,0,0,1.7H374.9a1.435,1.435,0,0,1,1.433,1.433V7.182a.848.848,0,1,0,1.7,0V3.129A3.133,3.133,0,0,0,374.9,0Z" transform="translate(-349.077)"/>
  <path id="Path_1022" data-name="Path 1022" d="M.848,8.03A.848.848,0,0,0,1.7,7.182V3.129A1.435,1.435,0,0,1,3.129,1.7H7.182a.848.848,0,1,0,0-1.7H3.129A3.133,3.133,0,0,0,0,3.129V7.182a.848.848,0,0,0,.848.848Z" transform="translate(0 0)"/>
  <path id="Path_1023" data-name="Path 1023" d="M7.182,376.333H3.129A1.435,1.435,0,0,1,1.7,374.9v-4.052a.848.848,0,1,0-1.7,0V374.9a3.133,3.133,0,0,0,3.129,3.129H7.182a.848.848,0,1,0,0-1.7Z" transform="translate(0 -349.077)"/>
  <path id="Path_1024" data-name="Path 1024" d="M377.182,370a.848.848,0,0,0-.848.848V374.9a1.435,1.435,0,0,1-1.433,1.433h-4.052a.848.848,0,1,0,0,1.7H374.9a3.133,3.133,0,0,0,3.129-3.129v-4.052A.848.848,0,0,0,377.182,370Z" transform="translate(-349.077 -349.077)"/>
  <path id="Path_1025" data-name="Path 1025" d="M327.491,81.7h2.69a.667.667,0,0,1,.666.666v2.69a.848.848,0,0,0,1.7,0v-2.69A2.365,2.365,0,0,0,330.182,80h-2.69a.848.848,0,1,0,0,1.7Z" transform="translate(-308.172 -75.476)"/>
  <path id="Path_1026" data-name="Path 1026" d="M81,82.363v2.69a.848.848,0,0,0,1.7,0v-2.69a.667.667,0,0,1,.666-.666h2.69a.848.848,0,0,0,0-1.7h-2.69A2.365,2.365,0,0,0,81,82.363Z" transform="translate(-76.42 -75.476)"/>
  <path id="Path_1027" data-name="Path 1027" d="M86.053,329.849h-2.69a.667.667,0,0,1-.666-.666v-2.69a.848.848,0,0,0-1.7,0v2.69a2.365,2.365,0,0,0,2.363,2.363h2.69a.848.848,0,0,0,0-1.7Z" transform="translate(-76.42 -307.229)"/>
  <path id="Path_1028" data-name="Path 1028" d="M332.544,329.182v-2.69a.848.848,0,1,0-1.7,0v2.69a.667.667,0,0,1-.666.666h-2.69a.848.848,0,0,0,0,1.7h2.69A2.365,2.365,0,0,0,332.544,329.182Z" transform="translate(-308.172 -307.229)"/>
  <path id="Path_1029" data-name="Path 1029" d="M1,241.848a.848.848,0,0,0,.848.848H28.992a.848.848,0,1,0,0-1.7H1.848A.848.848,0,0,0,1,241.848Z" transform="translate(-0.943 -227.372)"/>
</svg>
