<svg xmlns="http://www.w3.org/2000/svg" width="33.394" height="33.396" viewBox="0 0 33.394 33.396">
  <path id="settings_1_" data-name="settings (1)" d="M31.563,13.072l-2.616-.333a13.15,13.15,0,0,0-.792-1.912l1.616-2.08a2.068,2.068,0,0,0-.17-2.754L27.409,3.8a2.074,2.074,0,0,0-2.762-.177L22.57,5.24a13.1,13.1,0,0,0-1.913-.792l-.333-2.612A2.084,2.084,0,0,0,18.256,0H15.139a2.084,2.084,0,0,0-2.068,1.833l-.333,2.616a12.95,12.95,0,0,0-1.913.792L8.747,3.625a2.07,2.07,0,0,0-2.754.17L3.8,5.985a2.074,2.074,0,0,0-.177,2.763L5.24,10.827a13,13,0,0,0-.792,1.912l-2.612.333A2.084,2.084,0,0,0,0,15.139v3.117a2.084,2.084,0,0,0,1.833,2.068l2.616.333a13.149,13.149,0,0,0,.792,1.912l-1.616,2.08a2.068,2.068,0,0,0,.17,2.754l2.192,2.192a2.076,2.076,0,0,0,2.762.175l2.079-1.616a12.846,12.846,0,0,0,1.912.792l.333,2.61a2.084,2.084,0,0,0,2.068,1.84h3.117a2.084,2.084,0,0,0,2.068-1.833l.333-2.616a13.15,13.15,0,0,0,1.912-.792l2.08,1.616A2.068,2.068,0,0,0,27.4,29.6l2.192-2.192a2.073,2.073,0,0,0,.177-2.762l-1.616-2.079a12.847,12.847,0,0,0,.792-1.912l2.61-.333a2.084,2.084,0,0,0,1.837-2.068V15.139a2.082,2.082,0,0,0-1.831-2.068ZM16.7,23.655A6.957,6.957,0,1,1,23.655,16.7,6.965,6.965,0,0,1,16.7,23.655Z" fill="#757575"/>
</svg>
