<svg xmlns="http://www.w3.org/2000/svg" width="11.334" height="12.09" viewBox="0 0 11.334 12.09">
  <g id="share_3_" data-name="share (3)" transform="translate(-16)">
    <g id="Group_50" data-name="Group 50" transform="translate(16)">
      <path id="Path_1055" data-name="Path 1055" d="M25.209,7.839a2.117,2.117,0,0,0-1.7.868L20.156,6.992A2,2,0,0,0,20.093,5.6L23.6,3.5a2.113,2.113,0,1,0-.514-1.37,2.106,2.106,0,0,0,.148.764L19.716,5a2.121,2.121,0,1,0,.134,2.627l3.338,1.709a2.1,2.1,0,0,0-.1.624,2.125,2.125,0,1,0,2.125-2.125Z" transform="translate(-16)"/>
    </g>
  </g>
</svg>
