<svg xmlns="http://www.w3.org/2000/svg" width="18.669" height="19" viewBox="0 0 18.669 19">
  <g id="sort-by-attributes" transform="translate(-4.457)">
    <g id="Group_12" data-name="Group 12" transform="translate(4.457)">
      <path id="Path_1013" data-name="Path 1013" d="M254.415,438.536H251.7a.327.327,0,0,0-.339.339v2.036a.326.326,0,0,0,.339.339h2.714a.326.326,0,0,0,.339-.339v-2.036a.327.327,0,0,0-.339-.339Z" transform="translate(-242.193 -422.25)"/>
      <path id="Path_1014" data-name="Path 1014" d="M11.59,14.929H9.554V.339A.327.327,0,0,0,9.215,0H7.179A.326.326,0,0,0,6.84.339V14.929H4.8a.315.315,0,0,0-.318.212.323.323,0,0,0,.074.371L7.953,18.9A.381.381,0,0,0,8.2,19a.355.355,0,0,0,.244-.1l3.382-3.382a.4.4,0,0,0,.106-.254.326.326,0,0,0-.339-.34Z" transform="translate(-4.457)"/>
      <path id="Path_1015" data-name="Path 1015" d="M256.448,292.362H251.7a.326.326,0,0,0-.339.339v2.036a.326.326,0,0,0,.339.339h4.75a.327.327,0,0,0,.339-.339V292.7a.327.327,0,0,0-.339-.339Z" transform="translate(-242.19 -281.505)"/>
      <path id="Path_1016" data-name="Path 1016" d="M260.767.1a.331.331,0,0,0-.244-.1H251.7a.326.326,0,0,0-.339.339V2.375a.326.326,0,0,0,.339.339h8.821a.326.326,0,0,0,.339-.339V.339A.33.33,0,0,0,260.767.1Z" transform="translate(-242.193 0)"/>
      <path id="Path_1017" data-name="Path 1017" d="M258.484,146.181H251.7a.327.327,0,0,0-.339.339v2.036a.327.327,0,0,0,.339.339h6.786a.326.326,0,0,0,.339-.339V146.52a.326.326,0,0,0-.339-.339Z" transform="translate(-242.19 -140.752)"/>
    </g>
  </g>
</svg>
