<svg xmlns="http://www.w3.org/2000/svg" width="27.424" height="26.28" viewBox="0 0 27.424 26.28">
  <path id="star_1_" data-name="star (1)" d="M27.352,10.426a1.456,1.456,0,0,0-1.253-1l-7.916-.719L15.053,1.382a1.458,1.458,0,0,0-2.682,0L9.242,8.706l-7.918.719A1.459,1.459,0,0,0,.5,11.975l5.984,5.247L4.716,24.994A1.457,1.457,0,0,0,6.885,26.57l6.826-4.082,6.825,4.082a1.459,1.459,0,0,0,2.17-1.576l-1.764-7.771,5.984-5.247a1.459,1.459,0,0,0,.425-1.549ZM13.843,22.409" transform="translate(0 -0.496)" fill="#757575"/>
</svg>
