<svg xmlns="http://www.w3.org/2000/svg" width="30.051" height="30.057" viewBox="0 0 30.051 30.057">
  <g id="superhero" transform="translate(-0.007 0)">
    <path id="Path_1050" data-name="Path 1050" d="M24.842,1.137A2.566,2.566,0,0,0,22.707,0H7.359A2.564,2.564,0,0,0,5.224,1.137L.437,8.275a2.554,2.554,0,0,0,.058,2.918l13.3,18.234a1.537,1.537,0,0,0,2.482,0l13.3-18.234a2.555,2.555,0,0,0,.058-2.918Zm3.92,9.467-13.3,18.234a.551.551,0,0,1-.863,0L1.3,10.6a1.553,1.553,0,0,1-.036-1.77L6.056,1.694A1.565,1.565,0,0,1,7.359,1H22.707a1.566,1.566,0,0,1,1.3.693L28.8,8.833a1.553,1.553,0,0,1-.035,1.77Zm0,0" transform="translate(0 0)" fill="#757575"/>
    <path id="Path_1051" data-name="Path 1051" d="M55.487,34.575a.5.5,0,0,0-.181-.162l-.419-.222a.5.5,0,0,0-.235-.058H39.624a.5.5,0,0,0-.235.059l-.421.223a.5.5,0,0,0-.181.163l-4.5,6.705a1,1,0,0,0,.025,1.149L46.324,58.769a1.011,1.011,0,0,0,1.627,0L59.97,42.388a1,1,0,0,0,.022-1.152ZM51.741,50.728l-4.361-2.41a.5.5,0,0,0-.484,0l-4.358,2.41.837-5.143a.5.5,0,0,0-.136-.431l-3.577-3.666,4.921-.751a.5.5,0,0,0,.378-.283l2.178-4.64,2.178,4.64a.5.5,0,0,0,.378.283l4.921.751-3.577,3.666a.5.5,0,0,0-.136.431ZM35.116,41.843l-.416-.28.416.279Zm4.434-6.6.2-.106h6.6l-2.183,4.651-5.62.86a.5.5,0,0,0-.283.845l4.082,4.183-.8,4.909-6.428-8.742Zm7.581,22.937-4.625-6.289,4.632-2.56,4.616,2.552Zm5.6-7.624-.8-4.882,4.082-4.183a.5.5,0,0,0-.283-.844l-5.62-.86-2.183-4.651h6.6l.2.105,4.432,6.553Zm0,0" transform="translate(-32.105 -32.129)" fill="#757575"/>
    <path id="Path_1052" data-name="Path 1052" d="M182.874,118a.5.5,0,0,0-.4-.337l-2.823-.431-1.157-2.468a.5.5,0,0,0-.907,0l-1.158,2.468-2.823.431a.5.5,0,0,0-.283.845l2.062,2.116-.463,2.838a.5.5,0,0,0,.737.519l2.381-1.315,2.379,1.315a.493.493,0,0,0,.242.063.5.5,0,0,0,.495-.582l-.461-2.838,2.064-2.116A.5.5,0,0,0,182.874,118Zm-3.074,2.1a.5.5,0,0,0-.136.43L180,122.6l-1.719-.952a.5.5,0,0,0-.484,0l-1.719.952.338-2.07a.5.5,0,0,0-.136-.43l-1.56-1.6,2.123-.324a.5.5,0,0,0,.378-.283l.818-1.744.819,1.744a.5.5,0,0,0,.378.283l2.123.324Zm0,0" transform="translate(-163.007 -107.756)" fill="#757575"/>
  </g>
</svg>
