<svg xmlns="http://www.w3.org/2000/svg" width="29.627" height="29.612" viewBox="0 0 29.627 29.612">
  <g id="swords" transform="translate(0 -0.097)">
    <g id="Group_48" data-name="Group 48" transform="translate(0 0.097)">
      <path id="Path_1053" data-name="Path 1053" d="M28.944,25.646l-.027-.027L27.777,24.5,25.7,22.412l-1.542-1.542L25.522,19.5a.648.648,0,0,0,0-.914L24.044,17.11a.648.648,0,0,0-.914,0l-.531.531L20.415,15.2l8.658-7.751a.648.648,0,0,0,.214-.454L29.6.779a.645.645,0,0,0-.68-.68L22.7.4a.648.648,0,0,0-.454.214L14.815,8.951,7.369.636A.648.648,0,0,0,6.915.422L.7.118A.645.645,0,0,0,.02.8L.331,7.013a.648.648,0,0,0,.214.454l8.671,7.777-2.178,2.4-.531-.531a.648.648,0,0,0-.914,0L4.116,18.594a.648.648,0,0,0,0,.914l1.367,1.367L3.934,22.411l-3.24,3.24a2.376,2.376,0,0,0,3.357,3.364l4.757-4.757,1.367,1.367a.648.648,0,0,0,.914,0l1.478-1.478a.648.648,0,0,0,0-.914l-.506-.564,2.754-2.456,2.754,2.456-.531.531a.648.648,0,0,0,0,.914l1.478,1.478a.648.648,0,0,0,.914,0L20.8,24.226l1.542,1.542,2.087,2.087,1.128,1.128a2.378,2.378,0,0,0,3.39-3.337Zm-7.279-7.084L20.525,19.7l-2.437-2.437,1.342-1.2ZM1.575,6.657l-.259-5.23,5.23.259,7.362,8.231L12.4,11.6,9.683,8.873a.648.648,0,0,0-.914.914l2.806,2.78-1.491,1.679ZM3.124,28.043a1.076,1.076,0,0,1-.765.318,1.082,1.082,0,0,1-.726-1.8l.648-.648,1.517,1.5Zm1.581-1.581-1.491-1.5,1.173-1.173,1.529,1.529ZM6.8,24.369,5.269,22.839l1.121-1.05L7.92,23.319Zm3.824-.175L9.261,22.833,6.818,20.389,5.483,19.048l.557-.557,5.185,5.185Zm.486-2.469L9.968,20.584,20.791,9.761a.648.648,0,1,0-.914-.914L9.054,19.67,7.913,18.529l2.657-2.968L23.052,1.692l5.23-.259-.259,5.23-8.956,8Zm4.64-2.417,1.393-1.173,2.482,2.482-1.141,1.141Zm4.537,3.519-1.316,1.4-.557-.557L23.6,18.484l.557.557-1.367,1.367Zm1.374.46,1.581-1.5,1.082,1.082L22.793,24.4Zm3.176,3.176-1.173-1.173,1.529-1.529,1.173,1.173ZM28,28.076l-.052-.032a1.108,1.108,0,0,1-1.529,0l-.648-.648,1.562-1.484.648.648A1.082,1.082,0,0,1,28,28.076Z" transform="translate(0 -0.097)" fill="#757575"/>
    </g>
  </g>
</svg>
