<svg xmlns="http://www.w3.org/2000/svg" width="28" height="25.02" viewBox="0 0 28 25.02">
  <g id="tajg" transform="translate(0 -23.224)">
    <g id="Group_85" data-name="Group 85" transform="translate(0 23.224)">
      <g id="Group_84" data-name="Group 84" transform="translate(0 0)">
        <path id="Path_1092" data-name="Path 1092" d="M21.84,23.224h-8.6a2.054,2.054,0,0,0-1.452.6L.6,35.014a2.054,2.054,0,0,0,0,2.9l8.6,8.6a2.053,2.053,0,0,0,2.9,0l11.19-11.188a2.059,2.059,0,0,0,.6-1.454v-8.6A2.053,2.053,0,0,0,21.84,23.224ZM18.247,30.41a1.54,1.54,0,1,1,1.54-1.54A1.541,1.541,0,0,1,18.247,30.41Z" transform="translate(0 -23.224)" fill="#757575"/>
      </g>
    </g>
    <g id="Group_87" data-name="Group 87" transform="translate(14.051 25.277)">
      <g id="Group_86" data-name="Group 86" transform="translate(0 0)">
        <path id="Path_1093" data-name="Path 1093" d="M230.884,55.224v9.557a1.783,1.783,0,0,1-.524,1.263L218.988,77.415l.175.175a2.053,2.053,0,0,0,2.9,0l10.268-10.266a2.051,2.051,0,0,0,.6-1.452V57.277A2.053,2.053,0,0,0,230.884,55.224Z" transform="translate(-218.988 -55.224)" fill="#757575"/>
      </g>
    </g>
  </g>
</svg>
