<svg xmlns="http://www.w3.org/2000/svg" width="34.576" height="34.576" viewBox="0 0 34.576 34.576">
  <path id="talent-search" d="M25.538,14.384A12.2,12.2,0,0,0,24.7,9.968c.176.216.354.426.529.627a6.034,6.034,0,0,1,1.422,2.187v2.159a1.675,1.675,0,0,0,1.673,1.673h2.231a1.675,1.675,0,0,0,1.673-1.673V12.783A6.019,6.019,0,0,1,33.651,10.6a6.006,6.006,0,0,0,1.925-4.019C35.576,3.346,33,1,29.441,1s-6.134,2.346-6.134,5.577a4.386,4.386,0,0,0,.109.941,12.266,12.266,0,0,0-4.571-4.055V1.145l-.839.49a4.555,4.555,0,0,1-2.053.48,2.165,2.165,0,0,1-1.274-.405A4.513,4.513,0,0,0,12.048,1h-.239A4.073,4.073,0,0,0,8.5,2.694,2.23,2.23,0,0,0,6.792,3.967,12.264,12.264,0,0,0,9.923,26.185V32.23a3.346,3.346,0,1,0,6.692,0V26.185q.57-.161,1.115-.376v7.536h7a2.218,2.218,0,0,0,3.849,0h7V17.73H25.07a12.209,12.209,0,0,0,.468-3.346Zm3.346-7.807H30v5.577H28.884ZM30.557,15.5H28.326a.558.558,0,0,1-.558-.558V13.269h3.358l-.012,1.673A.558.558,0,0,1,30.557,15.5ZM29.441,2.115c2.955,0,5.019,1.835,5.019,4.461a4.981,4.981,0,0,1-1.652,3.289,7.734,7.734,0,0,0-1.544,2.288h-.149V7.589a1.654,1.654,0,0,0,.558.1A1.673,1.673,0,1,0,30.1,5.461H28.78a1.683,1.683,0,1,0-1.012,2.128v4.564h-.149a7.741,7.741,0,0,0-1.544-2.288,4.981,4.981,0,0,1-1.652-3.289c0-2.627,2.064-4.461,5.019-4.461Zm1.673,3.9a.558.558,0,1,1,.558.558A.558.558,0,0,1,31.114,6.019Zm-3.346,0a.558.558,0,1,1-.558-.558A.558.558,0,0,1,27.768,6.019ZM4.346,14.384a8.868,8.868,0,0,1,2.71-6.4.089.089,0,0,0,0,.012,2.207,2.207,0,0,0-.482,1.369A2.233,2.233,0,0,0,8.807,11.6h.148a4.485,4.485,0,0,0,1.958,2.663l-.325,1.3-2.347.335a5.784,5.784,0,0,0-3.3,1.657,8.854,8.854,0,0,1-.592-3.167Zm4.461-3.9a1.115,1.115,0,0,1,0-2.231Zm6.459,8.609-1.149-.862L15.7,16.649l.581.083Zm-5.006-2.358.581-.083,1.579,1.579-1.149.862Zm4.621-.845L13.269,17.5l-1.613-1.613.287-1.149a4.43,4.43,0,0,0,1.288.2h.04a4.482,4.482,0,0,0,1.326-.2Zm-1.643-2.06A3.355,3.355,0,0,1,9.923,10.48V7.861a1.837,1.837,0,0,1,.82-1.532,1.876,1.876,0,0,1,1.073-.31,2.39,2.39,0,0,1,1.331.4,4.222,4.222,0,0,0,2.352.712,3.345,3.345,0,0,0,.814-.1,2.42,2.42,0,0,1,.3,1.216V10.48a3.325,3.325,0,0,1-.99,2.376,3.382,3.382,0,0,1-2.386.969ZM6.448,17.742A4.758,4.758,0,0,1,8.4,17l.719-.1,2.692,6.282a8.94,8.94,0,0,1-6.364-4.508A4.69,4.69,0,0,1,6.448,17.742ZM13.074,23.3l-1.351-3.153,1.546-1.159,1.546,1.159L13.463,23.3c-.066,0-.129.01-.195.01s-.129-.008-.195-.01Zm4.346-6.4.719.1a4.758,4.758,0,0,1,1.951.745,4.7,4.7,0,0,1,1,.927,8.941,8.941,0,0,1-6.364,4.508Zm4.18.656a5.774,5.774,0,0,0-.892-.736,5.876,5.876,0,0,0-2.411-.921l-2.347-.335-.323-1.293a4.482,4.482,0,0,0,.783-.616A4.428,4.428,0,0,0,17.585,11.6h.145a2.233,2.233,0,0,0,2.231-2.231,2.209,2.209,0,0,0-.455-1.335l0-.012a8.861,8.861,0,0,1,2.09,9.533ZM17.337,6.583a3.362,3.362,0,0,0,1.254-1.52,2.294,2.294,0,0,1,.135,1.783l-.152.456a2.226,2.226,0,0,0-.844-.168h-.172a3.345,3.345,0,0,0-.221-.551ZM17.73,8.25a1.115,1.115,0,0,1,0,2.231ZM8.807,3.788h.3l.235-.352a2.96,2.96,0,0,1,2.468-1.321h.239a3.417,3.417,0,0,1,2.066.556,3.254,3.254,0,0,0,1.84.559,5.846,5.846,0,0,0,1.777-.279v.837A2.233,2.233,0,0,1,15.5,6.019a3.114,3.114,0,0,1-1.734-.525,3.544,3.544,0,0,0-2-.591A2.959,2.959,0,0,0,8.9,7.134h-.09a2.215,2.215,0,0,0-.766.144A13.627,13.627,0,0,1,7.692,4.9,1.116,1.116,0,0,1,8.807,3.788Zm-6.692,10.6A11.061,11.061,0,0,1,6.608,5.442c.037.4.106.848.185,1.276a10.046,10.046,0,1,0,13.079.123,3.429,3.429,0,0,0,.089-.736,3.509,3.509,0,0,0-.068-.687A11.151,11.151,0,1,1,2.115,14.384ZM15.5,32.23a2.231,2.231,0,1,1-4.461,0V26.446a12.129,12.129,0,0,0,4.461,0Zm18.961,0H27.83L27.7,32.6a1.106,1.106,0,0,1-2.09,0l-.132-.371H18.846V25.307a12.3,12.3,0,0,0,1.115-.647v6.455H33.345V18.846H34.46ZM27.211,30V18.846H32.23V30ZM26.1,18.846V30H21.076V23.865h-.029a12.325,12.325,0,0,0,3.647-5.019Z" transform="translate(-1 -1)" fill="#757575"/>
</svg>
