<svg xmlns="http://www.w3.org/2000/svg" width="21" height="23.893" viewBox="0 0 21 23.893">
  <g id="user_2_" data-name="user (2)" transform="translate(-31)">
    <g id="Group_45" data-name="Group 45" transform="translate(35.2)">
      <g id="Group_44" data-name="Group 44" transform="translate(0)">
        <path id="Path_1019" data-name="Path 1019" d="M127.3,0a6.3,6.3,0,1,0,6.3,6.3A6.307,6.307,0,0,0,127.3,0Z" transform="translate(-121)" fill="#fff"/>
      </g>
    </g>
    <g id="Group_47" data-name="Group 47" transform="translate(31 14)">
      <g id="Group_46" data-name="Group 46" transform="translate(0)">
        <path id="Path_1020" data-name="Path 1020" d="M49.338,302.716A8.981,8.981,0,0,0,42.9,300H40.1a8.981,8.981,0,0,0-6.438,2.716A9.181,9.181,0,0,0,31,309.193a.7.7,0,0,0,.7.7H51.3a.7.7,0,0,0,.7-.7A9.181,9.181,0,0,0,49.338,302.716Z" transform="translate(-31 -300)" fill="#fff"/>
      </g>
    </g>
  </g>
</svg>
